<?xml version="1.0" standalone="no"?><!DOCTYPE svg PUBLIC "-//W3C//DTD SVG 1.1//EN" "http://www.w3.org/Graphics/SVG/1.1/DTD/svg11.dtd"><svg t="1763480842403" class="icon" viewBox="0 0 1024 1024" version="1.1" xmlns="http://www.w3.org/2000/svg" p-id="11930" xmlns:xlink="http://www.w3.org/1999/xlink" width="200" height="200"><path d="M225.28 151.68C407.04 10.24 668.8 43.52 810.24 225.28a417.92 417.92 0 0 1 10.624 497.152l-10.56 14.272 112.64 112.64a51.712 51.712 0 0 1 4.672 68.224l-4.672 5.376-5.376 4.672a51.648 51.648 0 0 1-62.336 0.448l-5.888-5.12-112.64-112.64c-181.76 140.8-444.16 108.16-584.96-73.6a416.64 416.64 0 0 1 73.6-584.96z m16.384 89.984a337.984 337.984 0 0 0 0 478.72 337.984 337.984 0 0 0 478.72 0 338.048 338.048 0 0 0 11.008-467.2l-11.008-11.52a337.984 337.984 0 0 0-478.72 0z" fill="#f9f4dc" p-id="11931"></path></svg>